# xmcd CD database file
#
# Track frame offsets:
#	150
#	20940
#	44630
#	69100
#	95487
#	115395
#	137312
#	153695
#	183362
#	209382
#	229427
#
# Disc length: 3428 seconds
#
# Revision: 0
# Processed by: cddbd v1.5.1PL0 Copyright (c) Steve Scherf et al.
# Submitted via: CDex 1.51
#
DISCID=9e0d620b
DTITLE=T's - Angel's Dream ~In Paradium~
DYEAR=2001
DGENRE=New Age
TTITLE0=Pie Jesu
TTITLE1=Dreaming Angel
TTITLE2=PARADIUM
TTITLE3=Jesu, Joy of Man's Desiring
TTITLE4=Après un rêve
TTITLE5=Ave Maria
TTITLE6=Sicilienne
TTITLE7=A Lullaby and a Lullaby
TTITLE8=Ave Maria (Prelude and Fuga in C-major)
TTITLE9=Ave Verum Corpus
TTITLE10=From a Far Country
EXTD=YEAR: 2001
EXTT0=
EXTT1=
EXTT2=
EXTT3=
EXTT4=
EXTT5=
EXTT6=
EXTT7=
EXTT8=
EXTT9=
EXTT10=
PLAYORDER=
